<?xml version="1.0" encoding="utf-8"?>
<!-- Generator: Adobe Illustrator 24.2.1, SVG Export Plug-In . SVG Version: 6.00 Build 0)  -->
<svg version="1.1" id="Layer_1" xmlns="http://www.w3.org/2000/svg" xmlns:xlink="http://www.w3.org/1999/xlink" x="0px" y="0px"
	 viewBox="0 0 3303.72 3157.26" style="enable-background:new 0 0 3303.72 3157.26;" xml:space="preserve">
<g>
	
		<rect x="-327.09" y="-416.53" style="display:none;fill-rule:evenodd;clip-rule:evenodd;fill:#FFFFFF;" width="3966.94" height="3966.94"/>
	<g>
		<defs>
			<path id="SVGID_1_" d="M1656.38,942.93c485.73,0,879.49,393.76,879.49,879.49s-393.76,879.49-879.49,879.49
				s-879.49-393.76-879.49-879.49S1170.64,942.93,1656.38,942.93 M1656.38,688.05c626.49,0,1134.37,507.88,1134.37,1134.37
				c0,626.49-507.87,1134.37-1134.37,1134.37S522.01,2448.91,522.01,1822.42C522.01,1195.93,1029.88,688.05,1656.38,688.05z"/>
		</defs>
		<clipPath id="SVGID_2_">
			<use xlink:href="#SVGID_1_"  style="overflow:visible;"/>
		</clipPath>
		<linearGradient id="SVGID_3_" gradientUnits="userSpaceOnUse" x1="1549.3732" y1="-341.2802" x2="1752.3467" y2="3763.0081">
			<stop  offset="0" style="stop-color:#ECF955"/>
			<stop  offset="1" style="stop-color:#1A85F8"/>
		</linearGradient>
		<rect x="522.01" y="688.05" style="clip-path:url(#SVGID_2_);fill:url(#SVGID_3_);" width="2268.74" height="2268.74"/>
	</g>
	<path style="opacity:0.3;fill-rule:evenodd;clip-rule:evenodd;fill:#005B50;" d="M1656.38,688.05
		c104.85,0,206.35,14.29,302.74,40.92l80.43,301.61c-115.82-56.15-245.81-87.66-383.17-87.66c-194.12,0-373.51,62.94-518.99,169.45
		l112.68-349.31C1376.22,714.65,1513.18,688.05,1656.38,688.05"/>
	<path style="opacity:0.3;fill-rule:evenodd;clip-rule:evenodd;fill:#005B50;" d="M2752.87,1530.93
		c24.67,93.03,37.88,190.71,37.88,291.49c0,457.84-271.26,852.27-661.81,1031.49c-45.27-78.63-86.4-160.52-117.82-226.53
		c309.04-136.39,524.76-445.46,524.76-804.96c0-78.55-10.35-154.67-29.68-227.14L2752.87,1530.93z"/>
	<path style="opacity:0.3;fill-rule:evenodd;clip-rule:evenodd;fill:#005B50;" d="M1107.17,2815.13
		c-282.62-156.71-491.27-430.56-560.36-756.04c73.4-15.06,166.61-34.45,249.45-52.5c53.8,252.46,215.92,464.8,435.38,586.09
		C1204.45,2641.09,1152.46,2733.77,1107.17,2815.13"/>
	<path style="opacity:0.3;fill-rule:evenodd;clip-rule:evenodd;fill:#005B50;" d="M1656.38,942.93
		c485.73,0,879.49,393.76,879.49,879.49s-393.76,879.49-879.49,879.49s-879.49-393.76-879.49-879.49S1170.64,942.93,1656.38,942.93
		 M1656.38,839.95c542.6,0,982.47,439.86,982.47,982.46c0,542.6-439.87,982.47-982.47,982.47s-982.47-439.87-982.47-982.47
		C673.91,1279.82,1113.77,839.95,1656.38,839.95z"/>
	<g>
		<defs>
			<path id="SVGID_4_" d="M1633.18,659.73l-240.67-58.15L478.65,3133.7c0,0,329.86,23.56,612.6-471.23
				c282.74-494.8,683.29-1767.13,683.29-1767.13L1633.18,659.73z"/>
		</defs>
		<clipPath id="SVGID_5_">
			<use xlink:href="#SVGID_4_"  style="overflow:visible;"/>
		</clipPath>
		<linearGradient id="SVGID_6_" gradientUnits="userSpaceOnUse" x1="2217.575" y1="203.3307" x2="-263.0812" y2="4014.4048">
			<stop  offset="0" style="stop-color:#FF00FF"/>
			<stop  offset="1" style="stop-color:#00FFFF"/>
		</linearGradient>
		<rect x="478.65" y="601.57" style="clip-path:url(#SVGID_5_);fill:url(#SVGID_6_);" width="1295.89" height="2555.69"/>
	</g>
	<path style="opacity:0.3;fill-rule:evenodd;clip-rule:evenodd;fill:#3E005D;" d="M892.04,1988.29l-267.6,741.46l449.27-37.43
		c5.87-9.76,11.71-19.66,17.54-29.86c112.96-197.67,244.69-519.42,362.2-834.58L892.04,1988.29z"/>
	<path style="opacity:0.3;fill-rule:evenodd;clip-rule:evenodd;fill:#1E003D;" d="M1633.18,659.73l-240.67-58.15l-135.87,376.47
		c88.54,215.45,179.26,430.52,271.84,644.52c140.74-392.68,246.07-727.22,246.07-727.22L1633.18,659.73z"/>
	<g>
		<defs>
			<path id="SVGID_7_" d="M1080.43,2000.57l2155.72-524.37c0,0,164.93,565.48-376.99,730.41
				C2317.25,2371.54,55.33,2724.96,55.33,2724.96s-20.63-116.94,60.73-257.88C301.98,2145,747.6,2081.52,1080.43,2000.57"/>
		</defs>
		<clipPath id="SVGID_8_">
			<use xlink:href="#SVGID_7_"  style="overflow:visible;"/>
		</clipPath>
		<linearGradient id="SVGID_9_" gradientUnits="userSpaceOnUse" x1="5081.8516" y1="1611.338" x2="-1764.4351" y2="2607.0405">
			<stop  offset="0" style="stop-color:#FF00FF"/>
			<stop  offset="0.48" style="stop-color:#FF7A85"/>
			<stop  offset="1" style="stop-color:#FFFF00"/>
		</linearGradient>
		<rect x="34.7" y="1476.2" style="clip-path:url(#SVGID_8_);fill:url(#SVGID_9_);" width="3366.39" height="1248.76"/>
	</g>
	<path style="opacity:0.3;fill-rule:evenodd;clip-rule:evenodd;fill:#8A0028;" d="M1634.7,1865.74l645.97-157.13l201.51,589.64
		c-173,36.91-378.89,76.9-596.62,117.11c-9.02-18.87-17.98-37.76-26.9-56.62c-68.14-144.12-133.84-289.48-198.42-435.23
		C1651.71,1904.27,1643.2,1885.01,1634.7,1865.74"/>
	<g>
		<defs>
			<path id="SVGID_10_" d="M1609.61,0l1130.96,3133.7c0,0-329.86,23.56-612.6-471.23c-282.74-494.8-835.42-1783.94-835.42-1783.94
				L1609.61,0z"/>
		</defs>
		<clipPath id="SVGID_11_">
			<use xlink:href="#SVGID_10_"  style="overflow:visible;"/>
		</clipPath>
		<linearGradient id="SVGID_12_" gradientUnits="userSpaceOnUse" x1="2665.4148" y1="3411.5371" x2="1380.1311" y2="-219.2002">
			<stop  offset="0" style="stop-color:#FF00FF"/>
			<stop  offset="0.48" style="stop-color:#FF7A85"/>
			<stop  offset="1" style="stop-color:#FFFF00"/>
		</linearGradient>
		<rect x="1292.55" style="clip-path:url(#SVGID_11_);fill:url(#SVGID_12_);" width="1448.02" height="3157.26"/>
	</g>
	<path style="opacity:0.28;fill-rule:evenodd;clip-rule:evenodd;fill:#FFFF00;" d="M1767.31,2161.91
		c-36.17-79.26-71.79-158.77-107.07-238.4c-8.53-19.24-17.04-38.5-25.54-57.77l-215.21,52.35l-339.06,82.48
		c-66.62,16.2-137.75,31.71-210.41,48.72c-290.39,68.01-605.25,160.17-753.96,417.8c-81.36,140.94-60.73,257.88-60.73,257.88
		s44.42-263.19,709.7-384.77c14.21-2.6,28.7-5.13,43.49-7.59c151.75-25.29,315.44-53.84,478.96-83.09
		C1451.69,2220.15,1615.73,2190.08,1767.31,2161.91"/>
	<path style="opacity:0.28;fill-rule:evenodd;clip-rule:evenodd;fill:#FFFFFF;" d="M1285.34,1950.72l-204.91,49.84
		c-66.62,16.2-137.75,31.71-210.41,48.72c-290.39,68.01-605.25,160.17-753.96,417.8c-81.36,140.94-60.73,257.88-60.73,257.88
		s44.42-263.19,709.7-384.77c14.21-2.6,28.7-5.13,43.49-7.59c151.75-25.29,315.44-53.84,478.96-83.09
		c102.87-18.4,205.67-37.07,305.39-55.38c0,0-501.61,67.78-784.35,91.34c-282.74,23.56-235.62-94.25-141.37-141.37
		c94.25-47.13,329.87-47.12,518.36-23.56C1185.5,2120.55,1078.91,2040.06,1285.34,1950.72"/>
	<path style="opacity:0.28;fill-rule:evenodd;clip-rule:evenodd;fill:#8A0028;" d="M2482.18,2298.25l0,0.01
		c158.95-33.91,290.08-65.2,376.99-91.65c541.92-164.93,376.99-730.41,376.99-730.41c-22.78,439.49-754.76,550.1-754.76,550.1
		s-31.18,6.08-86.43,16.75c-13.56,2.61-28.55,5.51-44.9,8.65l92.05,255.04C2455.66,2303.9,2469.02,2301.07,2482.18,2298.25"/>
	<path style="opacity:0.28;fill-rule:evenodd;clip-rule:evenodd;fill:#8A0028;" d="M1767.31,2161.91
		c-151.58,28.17-315.61,58.24-479.83,87.6c-163.52,29.25-327.21,57.8-478.96,83.09c-14.78,2.47-29.28,5-43.49,7.59
		c-318.83,58.27-495.07,149.05-592.2,227.85c38.5-29.41,187.72-124.17,577.69-187.62c53.89-8.77,112.38-16.94,175.81-24.26
		c124.37-14.35,235.14-28.7,333.9-42.66c243.7-34.44,414.21-66.48,535.24-90.19c36.57-7.16,68.62-13.57,96.81-19.05
		c-9.61-19.89-19.27-39.99-28.97-60.25C1831.97,2149.88,1799.92,2155.85,1767.31,2161.91"/>
	<path style="opacity:0.3;fill-rule:evenodd;clip-rule:evenodd;fill:#1E003D;" d="M1528.48,1622.56L1528.48,1622.56
		c14-39.03,27.63-77.49,40.86-115.11c-48.16-107.2-92.84-207.89-131.65-295.96c-13.41,32.72-27.13,66.94-41.1,102.48
		c-69.75,177.37-145.98,387.51-223.31,606.69c-7.35,20.81-14.7,41.71-22.06,62.67l268.29-65.26c8.44-22.19,16.82-44.4,25.14-66.6h0
		C1473.55,1774.35,1501.66,1697.4,1528.48,1622.56"/>
	<path style="opacity:0.3;fill-rule:evenodd;clip-rule:evenodd;fill:#3E005D;" d="M1153.68,2544.83
		c-73.78,12.59-146.25,24.85-216.58,36.65c-18.36,42.4-37.09,81.63-55.99,117.93c-192.57,369.71-402.45,434.3-402.45,434.3
		s329.86,23.56,612.6-471.23l0.56-1h0.01C1111.91,2626.26,1132.6,2587.13,1153.68,2544.83"/>
	<path style="opacity:0.3;fill-rule:evenodd;clip-rule:evenodd;fill:#8A0028;" d="M2740.57,3133.7
		c-194.86-181.87-404.04-514.13-552.51-775.68c-120.84-212.84-201.47-378.84-201.47-378.84l-84.68-178.44l-251.16-529.24
		l-34.45-72.58c10.09,27.99,20.26,56.12,30.48,84.28c66.47,183.16,135.11,368.16,198.45,531.32c33.23,85.6,65,165.18,94.23,235.34
		c43.44,104.24,97.27,214.88,156.21,326.03c133.31,251.41,292.7,505.39,416.66,693.61
		C2644.85,3140.53,2740.57,3133.7,2740.57,3133.7"/>
	<path style="opacity:0.3;fill-rule:evenodd;clip-rule:evenodd;fill:#FFFFFF;" d="M1398.91,583.85l-6.4,17.72l-25.78,71.44
		l249.58,525.89l0.01,0.03l34.45,72.58l251.16,529.24l84.68,178.44c0,0,80.63,166,201.47,378.84
		c148.47,261.54,357.65,593.81,552.51,775.68l-298.45-826.96l-92.05-255.04l-119.43-330.92L1609.61,0L1398.91,583.85z"/>
	<path style="opacity:0.3;fill-rule:evenodd;clip-rule:evenodd;fill:#FFFFFF;" d="M1398.91,583.85l-6.4,17.72l-25.78,71.44
		l249.58,525.89l0.01,0.03l34.45,72.58l251.16,529.24l84.68,178.44c0,0,20.29,41.77,55.76,110.26c0,0-267.82-581.49-314.94-817.11
		c-47.12-235.62,70.69-306.31,235.62-47.12c164.93,259.18,523.03,1203.32,523.03,1203.32v-0.01l-43.95-121.77l-92.05-255.04
		l-119.43-330.92L1609.61,0L1398.91,583.85z"/>
	<rect x="-343.62" y="-433.06" style="fill:none;" width="4000" height="4000"/>
</g>
</svg>
