<svg xmlns="http://www.w3.org/2000/svg" version="1.1" xmlns:xlink="http://www.w3.org/1999/xlink" width="512" height="512" x="0" y="0" viewBox="0 0 64 64" style="enable-background:new 0 0 512 512" xml:space="preserve"><g><path d="M58.83 2.88H5.17a2.5 2.5 0 0 0 0 5h15.68v25.11h-3.56c-.94 0-1.8.529-2.23 1.37-.42.84-.34 1.85.221 2.609l6.06 8.25c.48.65 1.23 1.021 2.01 1.021.261 0 .521-.04.78-.13a2.493 2.493 0 0 0 1.72-2.37v-5.75h21.71v20.63a2.5 2.5 0 0 0 5 0V7.88h6.271a2.5 2.5 0 1 0-.002-5zM47.56 32.99H25.85V7.88h21.71z" fill="#656565" opacity="1" data-original="#000000"></path></g></svg>