<svg xmlns="http://www.w3.org/2000/svg" version="1.1" xmlns:xlink="http://www.w3.org/1999/xlink" width="512" height="512" x="0" y="0" viewBox="0 0 24 24" style="enable-background:new 0 0 512 512" xml:space="preserve" class=""><g><path d="M8.5 9.5c0 .551.128 1.073.356 1.537a3.968 3.968 0 0 0-.836 2.256A5.484 5.484 0 0 1 6.5 9.501a5.51 5.51 0 0 1 6.659-5.381c2.082.428 3.769 2.105 4.213 4.184.134.628.159 1.243.091 1.831a.996.996 0 0 1-.997.866h-.045c-.592 0-1.008-.527-.943-1.115a3.486 3.486 0 0 0-2.655-3.79 3.507 3.507 0 0 0-4.324 3.405ZM4.61 8.205a7.426 7.426 0 0 1 2.261-4.178c1.529-1.433 3.531-2.141 5.63-2.011 3.953.256 7.044 3.719 6.998 7.865-.019 1.736-1.473 3.118-3.208 3.118h-2.406a1.994 1.994 0 0 0-3.91.561 2 2 0 0 0 2 2c.538 0 1.025-.215 1.384-.561h2.932c2.819 0 5.168-2.245 5.208-5.063.074-5.221-3.848-9.591-8.869-9.915a9.41 9.41 0 0 0-7.126 2.548 9.54 9.54 0 0 0-2.855 5.266 1 1 0 0 0 .989 1.166c.472 0 .893-.329.972-.795ZM12 17c-3.695 0-6.892 2.292-7.955 5.702a1 1 0 0 0 .657 1.253 1.006 1.006 0 0 0 1.252-.657C6.743 20.768 9.228 19 11.999 19s5.257 1.768 6.045 4.298a1 1 0 0 0 1.91-.596C18.891 19.292 15.694 17 11.999 17Z" fill="#000000" opacity="1" data-original="#000000" class=""></path></g></svg>