<svg xmlns="http://www.w3.org/2000/svg" version="1.1" xmlns:xlink="http://www.w3.org/1999/xlink" width="512" height="512" x="0" y="0" viewBox="0 0 24 24" style="enable-background:new 0 0 512 512" xml:space="preserve" class=""><g><path d="M9.5 2.5a2.5 2.5 0 1 1 5 0 2.5 2.5 0 0 1-5 0ZM21 3c-1.654 0-3 1.346-3 3v5.184a2.986 2.986 0 0 0-.832-.18 3 3 0 0 0-2.173.769l-3.009 2.769c-.083-.084-.16-.172-.247-.253l-2.744-2.525a3.004 3.004 0 0 0-2.163-.76c-.29.016-.566.086-.832.18V6c0-1.654-1.346-3-3-3S0 4.346 0 6v10.101c0 2.137.832 4.146 2.343 5.657l1.95 1.95a.997.997 0 0 0 1.414 0 .999.999 0 0 0 0-1.414l-1.95-1.95A5.961 5.961 0 0 1 2 16.101V6a1.001 1.001 0 0 1 2 0s-.005 8.076 0 8.116c.03.655.285 1.309.746 1.857l2.616 2.721a.999.999 0 1 0 1.441-1.387l-2.571-2.67a1.001 1.001 0 0 1 .022-1.305.99.99 0 0 1 .687-.33.973.973 0 0 1 .71.244l2.733 2.516a5.015 5.015 0 0 1 1.615 3.68v3.559a1 1 0 1 0 2 0v-3.559a7.009 7.009 0 0 0-.824-3.276l3.163-2.911a.976.976 0 0 1 .72-.253.99.99 0 0 1 .687.33c.16.178.441.88.067 1.254l-2.533 2.634a1 1 0 0 0 1.441 1.386l2.578-2.685c.45-.536.686-1.195.701-1.857.002-.023 0-8.065 0-8.065a1.001 1.001 0 0 1 2 0V16.1a5.963 5.963 0 0 1-1.757 4.243l-1.95 1.95a.999.999 0 1 0 1.414 1.414l1.95-1.95a7.948 7.948 0 0 0 2.343-5.657V6c0-1.654-1.346-3-3-3Zm-10.671 7.274.864.795c.456.42 1.158.42 1.614 0l.834-.767a5.09 5.09 0 0 1 2.338-1.17l.013-.02C15.579 7.33 13.949 6 12.001 6S8.424 7.329 8.01 9.11l.012.019a4.94 4.94 0 0 1 2.308 1.144Z" fill="#000000" opacity="1" data-original="#000000" class=""></path></g></svg>