<svg xmlns="http://www.w3.org/2000/svg" version="1.1" xmlns:xlink="http://www.w3.org/1999/xlink" width="512" height="512" x="0" y="0" viewBox="0 0 24 24" style="enable-background:new 0 0 512 512" xml:space="preserve" class=""><g><path d="M2.5 2.5a2.5 2.5 0 1 1 5 0 2.5 2.5 0 0 1-5 0Zm11 1a1.5 1.5 0 1 0 .001 3.001A1.5 1.5 0 0 0 13.5 3.5Zm0 7a1.5 1.5 0 1 0 .001 3.001A1.5 1.5 0 0 0 13.5 10.5Zm0 7a1.5 1.5 0 1 0 .001 3.001A1.5 1.5 0 0 0 13.5 17.5ZM10 10v3c0 1.474-.81 2.75-2 3.444V23a1 1 0 0 1-2 0v-6H4v6a1 1 0 0 1-2 0v-6.556C.81 15.75 0 14.474 0 13v-3c0-2.206 1.794-4 4-4h2c2.206 0 4 1.794 4 4Zm-2 0c0-1.103-.897-2-2-2H4c-1.103 0-2 .897-2 2v3c0 1.103.897 2 2 2h2c1.103 0 2-.897 2-2v-3Zm10-4h5a1 1 0 1 0 0-2h-5a1 1 0 1 0 0 2Zm5 5h-5a1 1 0 1 0 0 2h5a1 1 0 1 0 0-2Zm0 7h-5a1 1 0 1 0 0 2h5a1 1 0 1 0 0-2Z" fill="#000000" opacity="1" data-original="#000000" class=""></path></g></svg>